<?xml version="1.0" encoding="utf-8"?>
<!-- Svg Vector Icons : http://www.onlinewebfonts.com/icon -->
<!DOCTYPE svg PUBLIC "-//W3C//DTD SVG 1.1//EN" "http://www.w3.org/Graphics/SVG/1.1/DTD/svg11.dtd">
<svg version="1.1" xmlns="http://www.w3.org/2000/svg" xmlns:xlink="http://www.w3.org/1999/xlink" x="0px" y="0px" viewBox="0 0 256 256" enable-background="new 0 0 256 256" xml:space="preserve">
<metadata> Svg Vector Icons : http://www.onlinewebfonts.com/icon </metadata>
<g><g><path fill="#000000" d="M112.4,19.9l-16.6-8.3L110.8,121l6.6-8.3l8.3,8.3V10L112.4,19.9z M145.6,19.9L127.4,10l1.7,109.3l9.9-9.9l6.6,13.2l14.9-109.3L145.6,19.9z M165.5,126l33.2-106l-18.3,8.3l-18.2-14.9L150.6,121l9.9-6.6L165.5,126z M202,19.9c0,0-32.3,103.8-31.5,106c2.3-1.4,4.4-3,6.5-4.6l-3.2,10.9v-1.3l-5.7-0.9l0.7-2.4h-3.3l-0.6,1.8l-1.1-0.2h-14.3l1-8.3l-5,1.7l-0.6,6.6h-16V121h-3.3v8.3h-14.3l-0.6-6.6h-5l0.8,6.6H93.7l-2.4-8.1l4.5-10.1l9.9,9.9L94.2,11.7L77.6,28.2L56,19.9l31.5,100.7h-1.3l3,9.2l-7.6,2.5l-4-11.4l-1.1-1.1c2.1,1.8,4.1,3.2,6,4.4C83.1,124,54.4,19.9,54.4,19.9L39.4,41.5c0,0-0.8,5.2,0,13.2c5.9,26,20.1,48.9,33.4,61.8l19.7,60.8l-3.3,13.2h76.3c0,0-1.1-13-1.7-13.2l17.8-60c15.3-14.2,26-35.3,35.2-64.3c0-0.2,0-11.6,0-11.6L202,19.9z M107.2,134.3l2.2,18.2h-8.7l-5.5-18.2H107.2z M82.9,135.8l7.8-1.5l5.9,18.2h-0.6l-6.2,2.5L82.9,135.8z M97.5,177.3l-6.5-18.3l4.8-1.6l2.2-0.2l6.4,19.8h3.6l-6.1-20.2l7.9-0.9l2.6,21.4L97.5,177.3L97.5,177.3z M125.7,177.3h-9.9l-1.9-21.2l11.9,1.2L125.7,177.3L125.7,177.3z M125.7,152.5h-12.2l-1.7-18.2h13.9V152.5z M149,134.3h14.5l-5.9,19.7l-10.8-1.2L149,134.3z M140.6,177.3H129v-19.9h13.4L140.6,177.3z M129,152.5v-18.2h15.5l-1.7,18.2H129z M144,177.3l2.3-19.6l9.9,1.1l-5.6,18.5H144z M160.6,177.3h-6.2l5.3-18.2h5.8l0.9-1.9L160.6,177.3z M166.9,155.7l-5.9-1.2l5.9-20.3h6.3L166.9,155.7z M89.2,198.9c0,0,0,11.1,0,11.6c1.9,19,19.6,34.5,29.9,34.8c13.6,1.7,18.5,0,18.3,0c15.7-1.1,31.5-17.9,29.9-46.4C165.8,198.9,89.2,198.9,89.2,198.9z"/></g></g>
</svg>