<?xml version="1.0" encoding="UTF-8"?>
<svg width="45.5mm" height="45.5mm" version="1.1" viewBox="0 0 45.5 45.5" xmlns="http://www.w3.org/2000/svg" xmlns:cc="http://creativecommons.org/ns#" xmlns:dc="http://purl.org/dc/elements/1.1/" xmlns:rdf="http://www.w3.org/1999/02/22-rdf-syntax-ns#">
 <defs>
  <clipPath id="clipPath36">
   <path d="m56.693 445.04h128.98v128.98h-128.98z"/>
  </clipPath>
 </defs>
 <metadata>
  <rdf:RDF>
   <cc:Work rdf:about="">
    <dc:format>image/svg+xml</dc:format>
    <dc:type rdf:resource="http://purl.org/dc/dcmitype/StillImage"/>
    <dc:title/>
   </cc:Work>
  </rdf:RDF>
 </metadata>
 <g transform="translate(-50.577 -173.8)">
  <path d="m50.577 219.3h45.5v-45.5h-45.5z" fill="#5e0d8b"/>
  <g transform="matrix(.35278 0 0 -.35278 56.554 212.09)">
   <path d="m0 0v7.285h1.478l3.414-4.486v4.486h1.581v-7.285h-1.362l-3.53 4.632v-4.632z" fill="#fff"/>
  </g>
  <g transform="matrix(.35278 0 0 -.35278 60.545 212.09)">
   <path d="m0 0v2.873l-2.8 4.412h1.874l1.737-2.926 1.769 2.926h1.822l-2.801-4.382v-2.903z" fill="#fff"/>
  </g>
  <g transform="matrix(.35278 0 0 -.35278 30.577 376.3)">
   <g clip-path="url(#clipPath36)">
    <g transform="translate(94.428 465.35)">
     <path d="m0 0c-0.992 0-1.766 0.276-2.32 0.826-0.556 0.552-0.833 1.354-0.833 2.41v4.164h1.602v-4.123c0-0.583 0.138-1.028 0.412-1.336 0.274-0.31 0.661-0.464 1.16-0.464 0.5 0 0.886 0.149 1.16 0.448 0.274 0.298 0.411 0.73 0.411 1.3v4.175h1.604v-4.111c0-1.083-0.284-1.902-0.849-2.457-0.566-0.556-1.348-0.832-2.347-0.832" fill="#fff"/>
    </g>
    <g transform="translate(107.06 465.36)">
     <path d="m0 0c-1.193 0-2.224 0.39-3.091 1.168l0.947 1.133c0.714-0.591 1.439-0.884 2.174-0.884 0.701 0 1.053 0.229 1.053 0.685v0.023c0 0.207-0.097 0.376-0.292 0.504-0.194 0.127-0.587 0.268-1.176 0.42-0.838 0.217-1.425 0.452-1.759 0.708-0.437 0.349-0.656 0.856-0.656 1.52v0.021c0 0.658 0.239 1.191 0.712 1.593 0.476 0.401 1.088 0.603 1.837 0.603 1.036 0 1.937-0.31 2.708-0.928l-0.833-1.205c-0.687 0.478-1.318 0.719-1.894 0.719-0.298 0-0.531-0.06-0.694-0.179-0.162-0.118-0.242-0.27-0.242-0.458v-0.019c0-0.236 0.099-0.413 0.301-0.532 0.2-0.117 0.624-0.261 1.269-0.427 0.793-0.2 1.36-0.454 1.707-0.761 0.402-0.345 0.603-0.821 0.603-1.425v-0.021c0-0.707-0.244-1.26-0.732-1.659-0.489-0.4-1.138-0.599-1.942-0.599" fill="#fff"/>
    </g>
    <g transform="translate(112.16 465.46)">
     <path d="m0 0v7.285h1.603v-2.882h2.957v2.882h1.602v-7.285h-1.602v2.925h-2.957v-2.925z" fill="#fff"/>
    </g>
    <g transform="translate(123.36 468.51)">
     <path d="m0 0h1.936l-0.969 2.363zm-2.872-3.05 3.122 7.347h1.477l3.123-7.347h-1.676l-0.667 1.634h-3.078l-0.666-1.634z" fill="#fff"/>
    </g>
    <g transform="translate(130.38 465.46)">
     <path d="m0 0v7.285h1.477l3.413-4.486v4.486h1.583v-7.285h-1.365l-3.529 4.632v-4.632z" fill="#fff"/>
    </g>
    <g transform="translate(143.16 465.34)">
     <path d="m0 0c-1.123 0-2.042 0.354-2.757 1.061-0.715 0.708-1.072 1.604-1.072 2.685v0.023c0 1.046 0.365 1.937 1.093 2.668 0.729 0.733 1.637 1.097 2.726 1.097 1.125 0 2.078-0.332 2.864-0.997l-1.011-1.219c-0.59 0.491-1.225 0.74-1.905 0.74-0.582 0-1.076-0.224-1.482-0.667-0.407-0.444-0.609-0.978-0.609-1.603v-0.019c0-0.67 0.206-1.218 0.62-1.656 0.41-0.437 0.942-0.657 1.587-0.657 0.603 0 1.106 0.147 1.507 0.436v1.042h-1.61v1.386h3.162v-3.166c-0.909-0.77-1.946-1.154-3.113-1.154" fill="#fff"/>
    </g>
    <g transform="translate(148.84 465.46)">
     <path d="m0 0v7.285h1.6v-2.882h2.957v2.882h1.603v-7.285h-1.603v2.925h-2.957v-2.925z" fill="#fff"/>
    </g>
    <g transform="translate(160.04 468.51)">
     <path d="m0 0h1.933l-0.965 2.363zm-2.874-3.05 3.122 7.347h1.479l3.122-7.347h-1.676l-0.665 1.634h-3.081l-0.667-1.634z" fill="#fff"/>
    </g>
    <path d="m167.12 472.75h1.604v-7.285h-1.604z" fill="#fff"/>
    <g transform="translate(77.098 487.13)">
     <path d="m0 0h1.874v-2.729h3.667v-1.673h-3.667v-3.26h4.36v-1.586h-9.697v1.586h3.463z" fill="#fff"/>
    </g>
    <g transform="translate(97.901 482.93)">
     <path d="m0 0-0.53-0.53h0.978c0 0.351 0.015 0.693 0.041 1.018h-1.262c0.107-0.083 0.285-0.189 0.529-0.325-0.081 0.026 0-0.029 0.244-0.163m-0.081-2.363-0.529-0.529h1.018v0.487c0.027 0.245 0.04 0.435 0.04 0.57h-1.344c0.272-0.159 0.544-0.34 0.815-0.528m-1.305 1.833c-0.215 0.164-0.448 0.323-0.691 0.488l0.57 0.53h-1.019l-0.082-1.018zm-0.081-2.362c-0.189 0.135-0.406 0.296-0.65 0.487l0.529 0.57h-1.182l-0.081-1.057zm-1.628 7.127 1.751-0.081c-0.054-0.082-0.123-0.202-0.204-0.367-0.053-0.108-0.095-0.191-0.122-0.243h4.073v-1.304h-4.846c-0.083-0.164-0.191-0.312-0.327-0.449h4.767c-0.027-0.789-0.043-1.562-0.043-2.321h0.694v-1.305h-0.733v-1.057h0.611v-1.263h-0.692c-0.055-0.87-0.599-1.304-1.63-1.304h-0.734c-0.515-0.028-0.895-0.044-1.14-0.044-0.108 0.355-0.246 0.736-0.407 1.142h0.855c0.378-0.026 0.68-0.04 0.897-0.04 0.352 0 0.555 0.081 0.611 0.246h-4.767l0.246 2.32h-0.654v1.305h0.774l0.083 1.058c-0.028 0.027-0.056 0.054-0.083 0.082-0.352 0.433-0.652 0.761-0.896 0.977 0.842 0.735 1.478 1.617 1.916 2.648m-3.016-0.081c0.653-0.488 1.196-0.897 1.63-1.223l-1.06-1.263c-0.272 0.272-0.691 0.639-1.262 1.104-0.136 0.133-0.245 0.228-0.326 0.282zm-0.244-5.662 1.548-0.449c-0.082-0.27-0.108-0.368-0.082-0.285-0.407-1.631-0.678-2.701-0.815-3.217l-1.547 0.364c0.353 1.17 0.649 2.365 0.896 3.587m0.082 2.934c0.597-0.407 1.14-0.844 1.63-1.305l-1.061-1.181c-0.162 0.163-0.419 0.394-0.772 0.694-0.354 0.324-0.626 0.555-0.817 0.689z" fill="#fff"/>
    </g>
    <g transform="translate(115.53 485.13)">
     <path d="m0 0h-1.142l-0.202-2.199h1.262zm-1.426-3.664-0.204-2.324h1.426l0.082 2.324zm-2.487 5.172h5.582l-0.244-7.496h0.692v-1.427h-6.518v0.448c-1.439-0.161-2.501-0.296-3.178-0.409l-0.202 1.509c1.384 0.11 2.579 0.231 3.583 0.366-0.026-0.164-0.042-0.324-0.042-0.487h1.02l0.164 2.324h-0.938v1.465h1.059l0.163 2.199h-1.141zm-1.669-5.134c0.162 0.025 0.474 0.07 0.937 0.123 0.244 0.028 0.405 0.04 0.489 0.04v-0.123c-0.055-0.407-0.084-0.827-0.084-1.263-0.76-0.025-1.439-0.107-2.036-0.243-0.325-0.029-0.61-0.082-0.855-0.163l-0.487 1.386c0.325 0.187 0.582 0.433 0.773 0.731 0.163 0.3 0.352 0.588 0.569 0.856-0.352-0.026-0.731-0.066-1.14-0.123l-0.408 1.303c0.027 0.028 0.057 0.069 0.082 0.123 0.217 0.219 0.368 0.421 0.449 0.612 0.433 0.759 0.815 1.574 1.14 2.446l1.59-0.491c-0.408-0.679-0.924-1.522-1.548-2.526h0.65c0.081 0.135 0.177 0.327 0.287 0.571 0.135 0.244 0.231 0.42 0.284 0.529l1.343-0.692c-0.651-1.032-1.33-2.064-2.035-3.096" fill="#fff"/>
    </g>
    <g transform="translate(130.42 483.17)">
     <path d="m0 0c0.624-0.708 1.154-1.343 1.588-1.914l-1.303-0.938c-0.382 0.596-0.871 1.276-1.467 2.037zm-5.175-5.376-0.244 1.464c0.38 0.027 1.113 0.11 2.198 0.246 0.843 0.079 1.495 0.151 1.958 0.203v-0.203c-0.054-0.544-0.082-0.949-0.082-1.224-0.978-0.107-2.255-0.268-3.83-0.486m2.16 3.707c0.246 0.023 0.637 0.081 1.181 0.162 0.163 0.027 0.285 0.039 0.368 0.039v-0.201c-0.055-0.383-0.083-0.789-0.083-1.224-0.163-0.027-0.408-0.041-0.733-0.041-0.762-0.054-1.291-0.109-1.59-0.164-0.407-0.081-0.707-0.136-0.895-0.163l-0.447 1.387c0.242 0.106 0.5 0.354 0.773 0.734 0.217 0.244 0.407 0.514 0.569 0.812-0.434-0.025-0.814-0.065-1.141-0.123l-0.448 1.305c0.219 0.163 0.406 0.409 0.572 0.734 0.407 0.706 0.802 1.522 1.182 2.446l1.588-0.491c-0.515-1.003-1.019-1.847-1.507-2.526h0.611c0.217 0.381 0.419 0.749 0.609 1.1l1.183-0.569c0.515 0.761 0.896 1.587 1.14 2.486l1.711-0.327c-0.162-0.434-0.326-0.829-0.489-1.179h3.016c-0.028-2.231-0.094-4.281-0.204-6.155-0.027-1.331-0.706-1.967-2.037-1.914h-1.753c-0.027 0.245-0.095 0.627-0.202 1.14-0.029 0.219-0.056 0.368-0.083 0.448 0.381-0.025 0.911-0.038 1.59-0.038 0.57-0.03 0.856 0.227 0.856 0.772 0.054 0.625 0.107 2.024 0.162 4.197h-2.199c-0.246-0.381-0.544-0.816-0.897-1.306-0.082 0.109-0.219 0.262-0.407 0.451-0.191 0.216-0.339 0.367-0.447 0.447-0.083-0.136-0.205-0.326-0.368-0.57-0.272-0.38-0.666-0.936-1.181-1.669" fill="#fff"/>
    </g>
    <g transform="translate(142.24 484.68)">
     <path d="m0 0h3.706c0.055 1.195 0.083 1.996 0.083 2.402h1.832c-0.056-0.974-0.082-1.776-0.082-2.402h3.748v-1.63h-3.748c0.435-2.064 1.779-3.392 4.033-3.993-0.107-0.135-0.271-0.325-0.487-0.57-0.353-0.433-0.598-0.762-0.736-0.977-1.845 0.705-3.081 1.874-3.705 3.502-0.463-1.414-1.738-2.62-3.83-3.625-0.354 0.57-0.733 1.06-1.142 1.466 2.392 0.923 3.695 2.323 3.913 4.197h-3.585z" fill="#fff"/>
    </g>
    <g transform="translate(164.21 487.21)">
     <path d="m0 0c0.297-0.462 0.583-0.937 0.855-1.428l-1.792-0.243c-0.11 0.19-0.151 0.257-0.123 0.205-0.3 0.543-0.531 0.962-0.692 1.26zm-3.3-3.789h6.03v0.528h-6.03zm-1.712-2.201h4.318l1.06 0.774h-3.87v0.815h-1.426v2.607h1.303c-0.245 0.41-0.516 0.882-0.814 1.427l1.752 0.325c0.325-0.489 0.61-0.951 0.853-1.386l-1.505-0.366h4.235c0.082 0.164 0.217 0.394 0.41 0.695 0.297 0.461 0.514 0.813 0.649 1.057l1.877-0.365c-0.11-0.136-0.274-0.367-0.49-0.692-0.217-0.301-0.381-0.531-0.489-0.695h1.506v-2.607h-1.383v-0.734l-1.346-0.855h2.895v-1.467h-3.588v-0.814c0.026-0.978-0.487-1.465-1.546-1.465h-1.915c-0.082 0.544-0.191 1.031-0.326 1.465 0.381-0.026 0.84-0.042 1.385-0.042 0.514-0.053 0.746 0.152 0.691 0.613v0.243h-4.236z" fill="#fff"/>
    </g>
    <g transform="translate(95.623 532.95)">
     <path d="m0 0c0.181-4.389 7.318-13.59 16.404-4.503l0.24 0.24c-8.782-2.524-12.691 2.829-13.715 8.299-0.129 0.678-5.596 2.828-5.113 2.23 1.441-1.806 1.929-5.289 2.184-6.266" fill="#fff"/>
    </g>
    <g transform="translate(113.59 530.38)">
     <path d="m0 0c-10.612 3.226-7.52 15.587-8.36 16.427-2.407 2.407-8.51 5.328-8.066 4.57 1.562-2.648 1.745-8.728 1.803-9.992 0.523-10.953 6.44-14.257 14.623-11.005" fill="#fff"/>
    </g>
    <g transform="translate(114.44 531.1)">
     <path d="m0 0c-6.556 7.518-0.546 15.125-1.383 17.03-1.443 3.246-7.723 5.682-7.522 5.228 1.082-2.404 1.2-5.295 1.2-5.295-1.342-9.878 1.045-14.486 7.46-16.845z" fill="#fff"/>
    </g>
    <g transform="translate(115.28 531.7)">
     <path d="m0 0c11.856 10.049-1.323 22.02-1.323 22.02 0.962-2.284 0.384-4.484 0.425-4.751 0.448-3.175-4.934-8.905 0.718-17.089z" fill="#fff"/>
    </g>
    <g transform="translate(113.36 523.51)">
     <path d="m0 0 7.46 7.459-2.172 2.169-7.458-7.458z" fill="#fff"/>
    </g>
    <g transform="translate(111.41 497.63)">
     <path d="m0 0c4.389 0.182 13.589 7.318 4.503 16.404l-0.24 0.24c2.524-8.781-2.829-12.692-8.299-13.716-0.678-0.128-2.827-5.595-2.23-5.112 1.805 1.44 5.288 1.928 6.266 2.184" fill="#fff"/>
    </g>
    <g transform="translate(113.99 515.6)">
     <path d="m0 0c-3.226-10.612-15.586-7.521-16.426-8.361-2.408-2.406-5.33-8.51-4.571-8.066 2.648 1.565 8.728 1.745 9.992 1.804 10.952 0.522 14.257 6.44 11.005 14.623" fill="#fff"/>
    </g>
    <g transform="translate(113.27 516.44)">
     <path d="m0 0c-7.519-6.556-15.125-0.546-17.03-1.383-3.246-1.444-5.682-7.724-5.228-7.523 2.404 1.082 5.295 1.201 5.295 1.201 9.878-1.342 14.486 1.044 16.847 7.459z" fill="#fff"/>
    </g>
    <g transform="translate(112.67 517.28)">
     <path d="m0 0c-10.048 11.856-22.019-1.322-22.019-1.322 2.283 0.96 4.484 0.383 4.75 0.425 3.175 0.447 8.906-4.935 17.089 0.718z" fill="#fff"/>
    </g>
    <g transform="translate(120.85 515.36)">
     <path d="m0 0-7.459 7.458-2.171-2.17 7.459-7.459z" fill="#fff"/>
    </g>
    <g transform="translate(146.74 513.42)">
     <path d="m0 0c-0.181 4.389-7.317 13.589-16.404 4.502l-0.239-0.238c8.78 2.523 12.691-2.829 13.714-8.3 0.129-0.677 5.596-2.827 5.113-2.23-1.44 1.804-1.928 5.288-2.184 6.266" fill="#fff"/>
    </g>
    <g transform="translate(128.77 516)">
     <path d="m0 0c10.612-3.226 7.52-15.586 8.361-16.427 2.407-2.408 8.51-5.329 8.066-4.57-1.564 2.648-1.745 8.728-1.804 9.993-0.523 10.951-6.441 14.256-14.623 11.004" fill="#fff"/>
    </g>
    <g transform="translate(127.93 515.27)">
     <path d="m0 0c6.556-7.518 0.546-15.124 1.383-17.029 1.444-3.246 7.723-5.681 7.522-5.228-1.082 2.402-1.2 5.295-1.2 5.295 1.341 9.877-1.044 14.485-7.459 16.844z" fill="#fff"/>
    </g>
    <g transform="translate(127.09 514.67)">
     <path d="m0 0c-11.855-10.048 1.323-22.019 1.323-22.019-0.962 2.283-0.383 4.483-0.426 4.749-0.448 3.176 4.934 8.906-0.717 17.09z" fill="#fff"/>
    </g>
    <g transform="translate(129.01 522.86)">
     <path d="m0 0-7.459-7.46 2.172-2.169 7.458 7.458z" fill="#fff"/>
    </g>
    <g transform="translate(130.95 548.74)">
     <path d="m0 0c-4.39-0.181-13.59-7.318-4.504-16.404l0.24-0.24c-2.525 8.781 2.83 12.691 8.298 13.715 0.679 0.129 2.829 5.596 2.23 5.113-1.804-1.44-5.288-1.928-6.264-2.184" fill="#fff"/>
    </g>
    <g transform="translate(128.37 530.77)">
     <path d="m0 0c3.227 10.613 15.587 7.521 16.425 8.36 2.41 2.409 5.331 8.51 4.573 8.067-2.649-1.564-8.729-1.745-9.993-1.804-10.951-0.523-14.256-6.44-11.005-14.623" fill="#fff"/>
    </g>
    <g transform="translate(129.09 529.93)">
     <path d="m0 0c7.519 6.556 15.125 0.546 17.03 1.382 3.245 1.445 5.681 7.724 5.227 7.523-2.403-1.082-5.294-1.2-5.294-1.2-9.877 1.342-14.486-1.044-16.845-7.459z" fill="#fff"/>
    </g>
    <g transform="translate(129.7 529.09)">
     <path d="m0 0c10.048-11.856 22.017 1.322 22.017 1.322-2.282-0.961-4.482-0.384-4.749-0.425-3.174-0.449-8.905 4.935-17.088-0.717z" fill="#fff"/>
    </g>
    <g transform="translate(121.51 531.01)">
     <path d="m0 0 7.459-7.459 2.17 2.17-7.459 7.459z" fill="#fff"/>
    </g>
   </g>
  </g>
 </g>
</svg>
