<?xml version="1.0" encoding="UTF-8"?>
<svg version="1.1" xmlns="http://www.w3.org/2000/svg" width="225" height="225">
<path d="M0 0 C74.25 0 148.5 0 225 0 C225 74.25 225 148.5 225 225 C150.75 225 76.5 225 0 225 C0 150.75 0 76.5 0 0 Z " fill="#EFF2F9" transform="translate(0,0)"/>
<path d="M0 0 C5.548125 -0.0825 11.09625 -0.165 16.8125 -0.25 C19.40315308 -0.30462402 19.40315308 -0.30462402 22.04614258 -0.36035156 C34.40955032 -0.51230934 44.60459181 1.32585547 54 10 C54.97259766 11.14662109 54.97259766 11.14662109 55.96484375 12.31640625 C61.87194013 19.16951807 66.34787171 20.18699863 75.03515625 20.87890625 C76.01355469 20.91886719 76.99195312 20.95882812 78 21 C78 25.29 78 29.58 78 34 C79.65 34.66 81.3 35.32 83 36 C85.421875 37.875 85.421875 37.875 87.75 40 C88.91789062 41.051875 88.91789062 41.051875 90.109375 42.125 C92.4421776 44.43852324 92.96990465 45.34124749 93.12025452 48.63223267 C93.11803391 49.74697968 93.11581329 50.86172668 93.11352539 52.01025391 C93.11341209 53.90198837 93.11341209 53.90198837 93.11329651 55.8319397 C93.10818949 57.21348103 93.10297349 58.59502196 93.09765625 59.9765625 C93.09579144 61.3861791 93.09436783 62.79579634 93.09336853 64.20541382 C93.08954833 67.91753932 93.07972228 71.62962578 93.06866455 75.34173584 C93.05664239 79.79457797 93.05204582 84.24743315 93.04621124 88.70028687 C93.03651027 95.46688508 93.01735026 102.23339759 93 109 C75.51 109 58.02 109 40 109 C40 89.2 40 69.4 40 49 C26.8 49 13.6 49 0 49 C0 32.83 0 16.66 0 0 Z " fill="#2D4399" transform="translate(44,64)"/>
<path d="M0 0 C38.6241877 -1.81764539 38.6241877 -1.81764539 53 9 C56.31544299 10.10514766 59.20410111 10.32107631 62.6875 10.5625 C63.86699219 10.64628906 65.04648438 10.73007813 66.26171875 10.81640625 C67.16535156 10.87699219 68.06898438 10.93757813 69 11 C68.94199219 11.59167969 68.88398438 12.18335937 68.82421875 12.79296875 C68.51616869 18.00814239 68.51616869 18.00814239 70.8125 22.5625 C73.5497965 24.83836652 76.53963162 26.81017008 79.4375 28.875 C88.27228047 35.22649083 88.27228047 35.22649083 91 40 C91.4355582 43.29779776 91.47896861 45.04206277 90 48 C80.76 48 71.52 48 62 48 C61.505 44.535 61.505 44.535 61 41 C59.19542514 38.7928222 57.59251303 37.05600345 55.5 35.1875 C49.04847837 29.18287218 49.04847837 29.18287218 48.90234375 25.6171875 C48.91394531 24.71226563 48.92554688 23.80734375 48.9375 22.875 C48.94652344 21.96492188 48.95554688 21.05484375 48.96484375 20.1171875 C48.97644531 19.41851562 48.98804688 18.71984375 49 18 C47.80375 17.938125 46.6075 17.87625 45.375 17.8125 C34.58009934 16.56822796 24.67471598 11.49260709 15.00415039 6.82006836 C10.09319156 4.46074321 5.24155178 2.52481506 0 1 C0 0.67 0 0.34 0 0 Z " fill="#23953B" transform="translate(90,64)"/>
</svg>
